HIERARCHY
ROOT Hips
{
    OFFSET 0.000000 0.000000 0.000000
    CHANNELS 6 Xposition Yposition Zposition Zrotation Xrotation Yrotation
    JOINT Spine
    {
        OFFSET -0.000000 7.750029 0.000000
        CHANNELS 3 Zrotation Xrotation Yrotation
        JOINT Spine1
        {
            OFFSET -0.000000 19.767460 0.000000
            CHANNELS 3 Zrotation Xrotation Yrotation
            JOINT Neck
            {
                OFFSET -0.000000 19.686279 1.789662
                CHANNELS 3 Zrotation Xrotation Yrotation
                JOINT Head
                {
                    OFFSET -0.000000 13.231757 -1.890251
                    CHANNELS 3 Zrotation Xrotation Yrotation
                    End Site
                    {
                        OFFSET -0.000000 23.628138 0.000000
                    }
                }
            }
            JOINT LeftShoulder
            {
                OFFSET 3.736819 16.910755 -0.280982
                CHANNELS 3 Zrotation Xrotation Yrotation
                JOINT LeftArm
                {
                    OFFSET 13.626117 0.000000 0.000000
                    CHANNELS 3 Zrotation Xrotation Yrotation
                    JOINT LeftForeArm
                    {
                        OFFSET 31.364786 0.000000 0.000000
                        CHANNELS 3 Zrotation Xrotation Yrotation
                        JOINT LeftHand
                        {
                            OFFSET 23.389509 0.000000 0.000000
                            CHANNELS 3 Zrotation Xrotation Yrotation
                            End Site
                            {
                                OFFSET 14.176883 0.000000 0.000000
                            }
                        }
                    }
                }
            }
            JOINT RightShoulder
            {
                OFFSET -3.821718 16.910755 -0.280982
                CHANNELS 3 Zrotation Xrotation Yrotation
                JOINT RightArm
                {
                    OFFSET -13.626117 0.000000 0.000000
                    CHANNELS 3 Zrotation Xrotation Yrotation
                    JOINT RightForeArm
                    {
                        OFFSET -31.364786 0.000000 0.000000
                        CHANNELS 3 Zrotation Xrotation Yrotation
                        JOINT RightHand
                        {
                            OFFSET -23.389509 0.000000 0.000000
                            CHANNELS 3 Zrotation Xrotation Yrotation
                            End Site
                            {
                                OFFSET -14.176883 0.000000 0.000000
                            }
                        }
                    }
                }
            }
        }
    }
    JOINT LeftUpLeg
    {
        OFFSET 9.451255 0.000000 0.000000
        CHANNELS 3 Zrotation Xrotation Yrotation
        JOINT LeftLeg
        {
            OFFSET -0.000000 -41.898624 0.000000
            CHANNELS 3 Zrotation Xrotation Yrotation
            JOINT LeftFoot
            {
                OFFSET -0.000000 -38.481331 0.000000
                CHANNELS 3 Zrotation Xrotation Yrotation
                JOINT LeftToeBase
                {
                    OFFSET -0.000000 -6.143315 14.176883
                    CHANNELS 3 Zrotation Xrotation Yrotation
                    End Site
                    {
                        OFFSET -0.000000 0.000000 3.780502
                    }
                }
            }
        }
    }
    JOINT RightUpLeg
    {
        OFFSET -9.451255 0.000000 0.000000
        CHANNELS 3 Zrotation Xrotation Yrotation
        JOINT RightLeg
        {
            OFFSET -0.000000 -41.898624 0.000000
            CHANNELS 3 Zrotation Xrotation Yrotation
            JOINT RightFoot
            {
                OFFSET -0.000000 -38.481331 0.000000
                CHANNELS 3 Zrotation Xrotation Yrotation
                JOINT RightToeBase
                {
                    OFFSET -0.000000 -6.143315 14.176883
                    CHANNELS 3 Zrotation Xrotation Yrotation
                    End Site
                    {
                        OFFSET -0.000000 0.000000 3.780502
                    }
                }
            }
        }
    }
}
MOTION
Frames:    7
Frame Time:    0.010000
-5.684589    90.035477    -49.226707    -0.055142    -0.760823    -162.423248    0.797653    4.666452    3.447385    -3.875961    5.516344    3.666693    0.620516    36.376186    -8.691967    2.728775    -32.345329    -7.775239    10.481854    3.484542    -3.968101    -77.060844    42.736843    -2.404114    8.798895    -17.687887    -23.280914    -17.599031    -14.904663    -6.992378    -8.815245    3.139344    8.980730    52.798988    39.723740    36.361961    -9.589903    -16.786810    20.853630    38.142380    -15.566254    -1.440566    5.018580    -10.070044    -5.642312    -2.516170    18.593050    -6.444440    -2.233443    -10.703819    13.492052    0.000000    0.000000    0.000000    -3.780557    -2.376838    -8.929946    3.699993    19.238503    6.862160    -2.293655    -16.841393    -28.234308    0.000000    0.000000    0.000000    
-5.808608    90.019989    -49.378525    -0.201209    -0.574588    -162.694168    0.674096    4.365839    3.361160    -3.276346    5.521179    3.544912    -1.407610    36.970802    -8.021452    4.400470    -31.932787    -6.820549    9.299948    3.573899    -4.374644    -77.434418    44.120636    -0.919780    9.335773    -17.908169    -22.725630    -17.605392    -15.021520    -7.287557    -10.148589    4.751790    9.407941    53.906151    39.434963    36.891148    -9.196881    -16.629341    20.714975    37.263481    -15.418201    -1.258965    4.873902    -9.895168    -5.552623    -2.480462    19.053129    -6.907840    -2.023371    -10.907463    14.001759    0.000000    0.000000    0.000000    -3.921454    -2.131423    -8.644188    3.740445    19.341612    6.697136    -2.274774    -16.958366    -28.134171    0.000000    0.000000    0.000000    
-5.944961    90.014778    -49.542294    -0.332672    -0.359834    -163.058807    0.777285    3.904030    3.173882    -3.381606    6.085048    3.380172    -2.755895    36.766525    -7.341119    5.713572    -31.214741    -5.883633    8.740527    3.253020    -4.117143    -77.855751    45.076046    0.125908    9.301399    -19.743471    -22.051804    -18.115173    -16.922882    -7.237442    -10.224340    5.055234    9.599530    53.662956    40.720985    37.131977    -9.123001    -16.598347    21.099972    36.837456    -15.291618    -1.032117    4.715922    -9.531989    -5.427757    -2.356415    19.238136    -7.094221    -1.913426    -11.098064    14.288746    0.000000    0.000000    0.000000    -4.019903    -1.817740    -8.837367    3.574989    19.211443    5.708148    -1.817388    -16.906406    -26.765839    0.000000    0.000000    0.000000    
-6.090164    90.013214    -49.729492    -0.458610    -0.119434    -163.517090    0.910172    3.501684    3.011133    -3.649267    6.562793    3.248258    -3.639409    36.411640    -6.747153    6.520762    -30.495024    -5.147160    8.494192    3.178335    -3.475709    -77.807831    45.441051    0.191757    9.120673    -17.501955    -20.857664    -17.981625    -14.845553    -6.841889    -10.241871    4.298796    9.587472    53.769119    43.150520    36.595470    -9.450658    -16.796936    21.725737    37.051407    -15.288138    -0.739461    4.562523    -9.010159    -4.853010    -2.046238    19.233313    -7.713488    -1.759575    -11.257685    14.617253    0.000000    0.000000    0.000000    -4.080524    -1.413699    -8.997746    3.346258    19.052803    6.075401    -1.387929    -16.908108    -26.687944    0.000000    0.000000    0.000000    
-6.208727    90.032219    -49.895584    -0.508898    0.031299    -164.011108    0.997256    3.021443    2.993370    -3.729016    6.948967    3.246179    -4.230778    36.085144    -6.395641    6.872622    -29.745846    -4.789985    8.140663    3.065191    -3.220447    -77.695419    45.708908    0.247981    8.577047    -18.526737    -19.486675    -18.192051    -15.905486    -7.912746    -10.430824    3.320988    9.542208    53.305058    46.423576    36.048271    -9.966510    -16.841881    22.695349    37.375389    -14.972811    -0.182592    4.520134    -8.499819    -4.546436    -1.931857    18.964455    -7.939981    -1.636593    -11.309001    14.907761    0.000000    0.000000    0.000000    -4.058186    -1.107764    -9.107644    3.066375    18.832190    6.405016    -0.994216    -16.883249    -26.410526    0.000000    0.000000    0.000000    
-6.384088    90.070114    -50.042408    -0.527487    0.153891    -164.748032    1.192905    2.607722    3.134698    -3.935642    7.027787    3.403647    -4.499688    36.148174    -6.154211    6.894360    -29.272736    -4.614861    7.892253    2.849950    -3.108926    -77.937225    46.029022    0.572388    8.486629    -18.167103    -17.923124    -18.943352    -15.558404    -8.289155    -10.644320    2.870072    9.574539    53.642864    47.002724    35.278522    -8.305396    -15.990894    23.767454    36.187683    -14.153220    0.466134    4.472478    -7.907657    -4.403735    -1.920862    18.517183    -7.529687    -1.507154    -11.298891    15.007793    0.000000    0.000000    0.000000    -4.067455    -0.877339    -9.014055    2.828163    18.561302    6.749472    -1.398128    -16.625298    -26.106705    0.000000    0.000000    0.000000    
-6.530943    90.091316    -50.194519    -0.541454    0.286583    -165.367126    1.186025    2.305084    3.277501    -3.871707    6.924652    3.535700    -4.613736    36.202251    -5.897861    6.672796    -28.771160    -4.488534    7.632989    3.111013    -3.066272    -77.628304    45.355431    0.034598    8.086388    -17.248039    -16.331535    -19.320871    -14.757759    -8.377488    -11.034294    3.033754    9.523939    52.827297    49.384377    35.367741    -9.113384    -16.350201    25.035374    36.422741    -14.262356    0.416319    4.442593    -7.374814    -4.338537    -1.941643    18.196503    -7.344169    -1.660911    -11.555882    15.382797    0.000000    0.000000    0.000000    -4.047106    -0.574774    -8.953246    2.606887    18.220795    7.001089    -0.868750    -16.528233    -25.933868    0.000000    0.000000    0.000000    
